<svg width="34" height="34" viewBox="0 0 34 34" fill="none" xmlns="http://www.w3.org/2000/svg">
<path d="M21.5583 10.9353L17.693 2.15592C17.4203 1.53634 16.5797 1.53634 16.307 2.15592L12.4417 10.9353C12.3305 11.1878 12.1021 11.3617 11.8385 11.3944L2.67428 12.5327C2.02754 12.6131 1.7678 13.4506 2.24596 13.9138L9.0213 20.4781C9.21617 20.6669 9.30342 20.9482 9.25169 21.221L7.45318 30.7039C7.32625 31.3731 8.00624 31.8907 8.57454 31.5574L16.6272 26.835C16.8588 26.6992 17.1412 26.6992 17.3728 26.835L25.4255 31.5574C25.9938 31.8907 26.6737 31.3731 26.5468 30.7039L24.7483 21.221C24.6966 20.9482 24.7838 20.6669 24.9787 20.4781L31.754 13.9138C32.2322 13.4506 31.9725 12.6131 31.3257 12.5327L22.1615 11.3944C21.8979 11.3617 21.6695 11.1878 21.5583 10.9353Z" stroke="white" stroke-width="3" stroke-linecap="round" stroke-linejoin="round"/>
</svg>
