<svg width="34" height="34" viewBox="0 0 34 34" fill="none" xmlns="http://www.w3.org/2000/svg">
<path d="M9.62093 15.8823L15.7177 2.38235C16.9304 2.38235 18.0934 2.85646 18.951 3.70037C19.8085 4.54427 20.2902 5.68886 20.2902 6.88233V12.8823H28.9171C29.359 12.8774 29.7967 12.967 30.1998 13.1451C30.603 13.3232 30.962 13.5854 31.2519 13.9136C31.5419 14.2417 31.7559 14.628 31.8791 15.0457C32.0023 15.4633 32.0318 15.9023 31.9655 16.3323L29.8621 29.8322C29.7519 30.5475 29.3827 31.1996 28.8225 31.6682C28.2623 32.1368 27.5489 32.3903 26.8137 32.3822H9.62093M9.62093 15.8823V32.3822M9.62093 15.8823H5.04837C4.23989 15.8823 3.46453 16.1983 2.89285 16.7609C2.32117 17.3235 2 18.0866 2 18.8822V29.3822C2 30.1778 2.32117 30.9409 2.89285 31.5035C3.46453 32.0661 4.23989 32.3822 5.04837 32.3822H9.62093" stroke="white" stroke-width="3" stroke-linecap="round" stroke-linejoin="round"/>
</svg>
