<svg width="40" height="40" viewBox="0 0 40 40" fill="none" xmlns="http://www.w3.org/2000/svg">
<path fill-rule="evenodd" clip-rule="evenodd" d="M8.33291 8.33333C7.41274 8.33333 6.66671 9.07922 6.66671 10V25C6.66671 25.9208 7.41274 26.6667 8.3329 26.6667H15C16.2059 26.6667 17.3432 26.8561 18.3334 27.307V11.6667C18.3334 10.2569 17.9821 9.50571 17.5715 9.09518C17.161 8.68464 16.4098 8.33333 15 8.33333H8.33291ZM20 6.81104C19.9765 6.78657 19.9527 6.76227 19.9286 6.73816C18.6724 5.48202 16.9236 5 15 5H8.33291C5.57118 5 3.33337 7.23888 3.33337 10V30C3.33337 32.7614 5.57195 35 8.33337 35H31.6667C34.4281 35 36.6667 32.7614 36.6667 30V10C36.6667 7.23888 34.4289 5 31.6672 5H25C23.0765 5 21.3277 5.48202 20.0715 6.73816C20.0474 6.76227 20.0236 6.78657 20 6.81104ZM21.6667 11.6667V27.307C22.6569 26.8561 23.7941 26.6667 25 26.6667H31.6672C32.5873 26.6667 33.3334 25.9208 33.3334 25V10C33.3334 9.07922 32.5873 8.33333 31.6672 8.33333H25C23.5903 8.33333 22.8391 8.68464 22.4286 9.09518C22.018 9.50571 21.6667 10.2569 21.6667 11.6667ZM33.3334 29.7156C32.8122 29.8998 32.2514 30 31.6672 30H25C23.5903 30 22.8391 30.3513 22.4286 30.7618C22.2243 30.9661 22.0347 31.2546 21.8958 31.6667H31.6667C32.5872 31.6667 33.3334 30.9205 33.3334 30V29.7156ZM18.1043 31.6667C17.9654 31.2546 17.7758 30.9661 17.5715 30.7618C17.161 30.3513 16.4098 30 15 30H8.3329C7.74865 30 7.18784 29.8998 6.66671 29.7156V30C6.66671 30.9205 7.4129 31.6667 8.33337 31.6667H18.1043Z" fill="white"/>
</svg>
