<svg width="34" height="34" viewBox="0 0 34 34" fill="none" xmlns="http://www.w3.org/2000/svg">
<path fill-rule="evenodd" clip-rule="evenodd" d="M15.8215 0.821487C16.4724 0.170614 17.5276 0.170614 18.1785 0.821487L22 4.64298V3.66667C22 2.74619 22.7462 2 23.6667 2H28.6667C29.5871 2 30.3333 2.74619 30.3333 3.66667V12.9763L33.1785 15.8215C33.8294 16.4724 33.8294 17.5276 33.1785 18.1785C32.5276 18.8294 31.4724 18.8294 30.8215 18.1785L30.3333 17.6904V28.6667C30.3333 31.4281 28.0948 33.6667 25.3333 33.6667H8.66666C5.90524 33.6667 3.66666 31.4281 3.66666 28.6667V17.6904L3.17851 18.1785C2.52763 18.8294 1.47236 18.8294 0.821484 18.1785C0.17061 17.5276 0.17061 16.4724 0.821484 15.8215L4.15422 12.4887C4.15462 12.4884 4.15502 12.488 4.15541 12.4876L15.8215 0.821487ZM6.99999 14.357V28.6667C6.99999 29.5871 7.74619 30.3333 8.66666 30.3333H25.3333C26.2538 30.3333 27 29.5871 27 28.6667V14.357L22.4884 9.8454C22.4882 9.84525 22.4881 9.8451 22.4879 9.84496L17 4.35702L6.99999 14.357ZM25.3333 7.97631L27 9.64298V5.33333H25.3333V7.97631Z" fill="white"/>
</svg>
