<svg width="40" height="40" viewBox="0 0 40 40" fill="none" xmlns="http://www.w3.org/2000/svg">
<path d="M35 20C35 28.2843 28.2843 35 20 35C17.0482 35 14.2956 34.1474 11.9749 32.675L5 35L7.32498 28.0251C5.85261 25.7044 5 22.9518 5 20C5 11.7157 11.7157 5 20 5C28.2843 5 35 11.7157 35 20Z" stroke="white" stroke-width="3" stroke-linecap="round" stroke-linejoin="round"/>
<path d="M22.5 20C22.5 21.3807 21.3807 22.5 20 22.5C18.6193 22.5 17.5 21.3807 17.5 20C17.5 18.6193 18.6193 17.5 20 17.5C21.3807 17.5 22.5 18.6193 22.5 20Z" fill="white"/>
<path d="M30 20C30 21.3807 28.8807 22.5 27.5 22.5C26.1193 22.5 25 21.3807 25 20C25 18.6193 26.1193 17.5 27.5 17.5C28.8807 17.5 30 18.6193 30 20Z" fill="white"/>
<path d="M15 20C15 21.3807 13.8807 22.5 12.5 22.5C11.1193 22.5 10 21.3807 10 20C10 18.6193 11.1193 17.5 12.5 17.5C13.8807 17.5 15 18.6193 15 20Z" fill="white"/>
</svg>
